# xmcd CD database file
#
# Track frame offsets:
#	150
#	14052
#	36415
#	57192
#	79565
#
# Disc length: 1335 seconds
#
# Revision: 0
# Processed by: cddbd v1.5PL3 Copyright (c) Steve Scherf et al.
# Submitted via: CDex 1.51
#
DISCID=39053505
DTITLE=サクラ大戦物語 - シャノワール (EP)
DYEAR=2004
DGENRE=Pop
TTITLE0=「開演前、楽屋にて」
TTITLE1=シャノワール
TTITLE2=ミステリアス
TTITLE3=シャノワール（オリジナル・カラオケ）
TTITLE4=ミステリアス（オリジナル・カラオケ）
EXTD=YEAR: 2004
EXTT0=
EXTT1=
EXTT2=
EXTT3=
EXTT4=
PLAYORDER=
